<svg width="154" height="20" viewBox="0 0 154 20" fill="none" xmlns="http://www.w3.org/2000/svg">
<path d="M15.5274 13.1527C13.5924 12.152 11.6579 11.1513 9.72284 10.1505V3.10547C11.6579 4.01277 13.5924 4.91953 15.5274 5.82683V13.1527Z" fill="#36415D"/>
<path d="M2.19318 14.1093C4.3464 15.2721 6.49907 16.4348 8.65229 17.5975C8.65229 18.3985 8.65229 19.1994 8.65175 20.0008C5.76783 18.4746 2.88392 16.9479 0 15.4216V4.74414C0.73124 5.1049 1.46248 5.4662 2.19372 5.82696C2.19372 8.58774 2.19372 11.3485 2.19372 14.1093H2.19318Z" fill="#36415D"/>
<path d="M8.65302 10.1505C6.73743 11.1513 4.82184 12.152 2.90625 13.1527V5.82683C4.82184 4.91953 6.73743 4.01277 8.65302 3.10547V10.1505Z" fill="#36415D"/>
<path d="M18.3227 15.4211C15.4561 16.9473 12.5895 18.4741 9.72284 20.0003V17.5981C11.895 16.4359 14.0665 15.2737 16.2387 14.1109V5.82696C16.9332 5.4662 17.6282 5.1049 18.3227 4.74414V15.4211Z" fill="#36415D"/>
<path d="M14.9241 14.1114C13.0123 15.0484 11.1005 15.9854 9.18816 16.9219C7.38976 15.9849 5.59137 15.0479 3.79297 14.1114C5.59137 13.1063 7.38976 12.1008 9.18816 11.0957C11.1 12.1008 13.0118 13.1063 14.9241 14.1114Z" fill="#36415D"/>
<path d="M17.7768 3.9986C17.0272 4.3545 16.2776 4.70986 15.528 5.06575C13.4147 4.04342 11.3015 3.02055 9.18822 1.99822C7.09387 3.02055 4.99898 4.04342 2.90464 5.06575C2.19554 4.71094 1.48644 4.35666 0.777344 4.00184C3.58079 2.66789 6.38424 1.33395 9.18768 0C12.0505 1.33287 14.9134 2.66573 17.7762 3.9986H17.7768Z" fill="#36415D"/>
<path d="M31.8549 1.98336C32.6425 1.98336 33.4037 2.03706 34.0716 2.10395V4.06635C33.5912 3.97308 32.7762 3.85249 31.641 3.85249C27.5683 3.85249 25.7793 5.90909 25.7793 9.99498V16.4041C24.1231 15.0955 23.3223 12.9993 23.3223 10.0345C23.3223 4.54682 26.126 1.98242 31.8549 1.98242V1.98336ZM26.4331 13.4939C27.3008 15.2566 29.0907 16.0979 32.0546 16.0979C34.3514 16.0979 36.4476 15.43 36.9818 15.2698C37.075 15.2434 37.1551 15.2302 37.2088 15.2302C37.3294 15.2302 37.3822 15.2971 37.4095 15.4837C37.45 15.7371 37.4632 16.0979 37.4632 16.4455C37.4632 16.6057 37.4632 16.779 37.45 16.9128C37.4236 17.1794 37.3831 17.2068 37.1165 17.3C36.6756 17.447 34.7 18.0744 31.9886 18.0744C29.6522 18.0744 27.8095 17.674 26.434 16.8591V13.4939H26.4331ZM34.7254 2.19722C35.5667 2.31781 36.2479 2.47797 36.7152 2.6108C37.0619 2.71726 37.1692 2.87742 37.1692 3.25143V6.78996C37.1692 7.09708 37.1429 7.16397 36.8621 7.20354C36.5955 7.24405 36.2611 7.25724 35.9408 7.25724C35.6204 7.25724 35.3001 7.24405 35.0326 7.20354C34.7518 7.16397 34.7254 7.09708 34.7254 6.78996V2.19628V2.19722Z" fill="#36415D"/>
<path d="M41.7885 6.77733V11.9316C41.7885 14.6024 42.8032 16.3378 45.7275 16.3378C47.3695 16.3378 48.4115 15.7904 49.0126 14.8285V17.4457C48.1176 17.8592 47.0229 18.0731 45.7275 18.0731C41.5483 18.0731 39.4785 15.8563 39.4785 11.9306C39.4785 9.5405 40.2529 7.79102 41.7885 6.77638V6.77733ZM42.4433 6.4165C43.3383 6.00292 44.433 5.78906 45.7284 5.78906C49.9076 5.78906 51.9774 8.00582 51.9774 11.9316C51.9774 14.3217 51.2029 16.0711 49.6673 17.0858V11.9316C49.6673 9.2607 48.6527 7.52535 45.7284 7.52535C44.0863 7.52535 43.0444 8.07271 42.4433 9.0346V6.41744V6.4165Z" fill="#36415D"/>
<path d="M57.8916 17.5267C57.8916 17.7669 57.8511 17.847 57.6108 17.8875C57.3301 17.9271 57.0503 17.9412 56.7432 17.9412C56.436 17.9412 56.1553 17.928 55.8755 17.8875C55.6353 17.847 55.5947 17.7669 55.5947 17.5267V8.05952C55.5947 7.89937 55.5147 7.81929 55.3413 7.81929H54.1533C53.9527 7.81929 53.8726 7.76559 53.8462 7.57905C53.8198 7.39252 53.8066 7.13815 53.8066 6.89791C53.8066 6.65768 53.8198 6.40425 53.8462 6.21678C53.8726 6.03024 53.9527 5.97654 54.1533 5.97654H57.3847C57.7314 5.97654 57.8925 6.06981 57.8925 6.44382V17.5267H57.8916ZM58.5463 6.8037C59.1201 6.34961 60.1489 5.78906 61.8983 5.78906C65.2899 5.78906 66.7059 7.2041 66.7059 10.3827V15.8045C66.7059 15.9647 66.7859 16.0448 66.9593 16.0448H67.8939C68.0945 16.0448 68.1746 16.0985 68.201 16.285C68.2274 16.4715 68.2415 16.7259 68.2415 16.9661C68.2415 17.2064 68.2283 17.4598 68.201 17.6473C68.1746 17.8338 68.0945 17.8875 67.8939 17.8875H66.7322C65.1702 17.8875 64.409 17.6473 64.409 15.8846V11.0243C64.409 8.62101 63.7279 7.60543 61.3915 7.60543C60.0292 7.60543 59.1078 7.99263 58.5473 8.75385V6.80465L58.5463 6.8037Z" fill="#36415D"/>
<path d="M70.1352 15.7904C70.2021 15.5633 70.2954 15.537 70.5356 15.6039C71.1762 15.7772 72.8588 16.2445 74.8221 16.3114V18.074C72.8861 18.0335 71.0029 17.6868 70.349 17.473C70.1088 17.3929 70.0683 17.3392 70.0419 17.099C70.0014 16.7381 70.0155 16.1908 70.1352 15.7904ZM75.1425 5.80225V7.47165C73.7274 7.51122 72.4179 7.81929 72.4179 9.03365C72.4179 10.248 73.4994 10.3422 75.7162 10.7031C78.8543 11.2108 80.8704 11.7177 80.8704 14.4422C80.8704 17.327 78.1063 18.0213 75.476 18.074V16.3114C77.0521 16.285 78.534 16.0306 78.534 14.6156C78.534 13.5604 77.9735 13.2137 75.4496 12.8265C72.432 12.3725 70.122 11.9184 70.122 9.22113C70.122 6.5239 72.6996 5.86914 75.1425 5.80225ZM75.7963 5.78906C77.7992 5.81544 79.5081 6.25634 79.8558 6.39012C80.0696 6.4702 80.1224 6.53709 80.1365 6.73681C80.1497 6.83008 80.1497 6.93748 80.1497 7.04394C80.1497 7.36425 80.1233 7.71189 80.0564 7.96531C80.0169 8.11228 79.9632 8.16598 79.8558 8.16598C79.8162 8.16598 79.7625 8.15279 79.6956 8.1396C79.3885 8.05952 77.5052 7.53854 75.7963 7.47165V5.78906Z" fill="#36415D"/>
<path d="M86.2495 5.97644H89.8681C90.0688 5.97644 90.1488 6.03014 90.1752 6.21668C90.2016 6.40321 90.2157 6.65758 90.2157 6.89781C90.2157 7.13805 90.2025 7.39147 90.1752 7.57895C90.1488 7.76549 90.0688 7.81919 89.8681 7.81919H86.2495C86.0761 7.81919 85.9961 7.91245 85.9961 8.05942V13.6809C85.9961 15.7639 86.8505 16.1643 88.3994 16.1643C89.187 16.1643 89.8417 16.0305 90.1215 15.9778C90.1611 15.9646 90.1884 15.9646 90.2148 15.9646C90.3618 15.9646 90.4154 16.0578 90.4418 16.218C90.4823 16.4451 90.5087 16.7654 90.5087 17.0725C90.5087 17.1789 90.5087 17.2995 90.4955 17.406C90.4691 17.6199 90.4154 17.6726 90.2289 17.7263C89.8417 17.8328 89.2011 17.9665 87.9189 17.9665C85.3017 17.9665 83.6992 16.8181 83.6992 13.9334V2.94382C83.6992 2.70359 83.7397 2.62351 83.98 2.583C84.2607 2.54249 84.5405 2.5293 84.8476 2.5293C85.1548 2.5293 85.4355 2.54249 85.7153 2.583C85.9555 2.62256 85.9961 2.70359 85.9961 2.94382V5.73432C85.9961 5.89448 86.0761 5.97456 86.2495 5.97456V5.97644Z" fill="#36415D"/>
<path d="M99.7392 7.73827C98.31 7.73827 97.269 8.19236 96.6811 9.207C96.3203 9.83444 96.1338 10.6889 96.1338 12.2651V17.5257C96.1338 17.766 96.0933 17.8461 95.853 17.8866C95.5723 17.9261 95.2925 17.9403 94.9854 17.9403C94.6782 17.9403 94.3975 17.9271 94.1177 17.8866C93.8774 17.8461 93.8369 17.766 93.8369 17.5257V8.05858C93.8369 7.89842 93.7569 7.81834 93.5835 7.81834H92.3955C92.1949 7.81834 92.1148 7.76465 92.0884 7.57811C92.062 7.39157 92.0488 7.13721 92.0488 6.89697C92.0488 6.65674 92.062 6.40331 92.0884 6.21583C92.1148 6.0293 92.1949 5.9756 92.3955 5.9756H95.2265C95.4931 5.9756 95.6269 6.05568 95.6674 6.29591L95.8012 7.21729C95.8144 7.33787 95.8813 7.35106 95.9614 7.35106H96.1083C96.1752 7.35106 96.2148 7.33787 96.309 7.24461C97.1503 6.32323 98.2987 5.78906 99.7806 5.78906C100.194 5.78906 100.435 5.80225 100.676 5.82957C100.903 5.85595 100.942 5.92284 100.97 6.12351C100.996 6.29685 101.009 6.53709 101.009 6.77827C101.009 7.0722 100.983 7.37933 100.942 7.57905C100.902 7.73921 100.849 7.8061 100.609 7.77972C100.302 7.75334 100.008 7.74015 99.7411 7.74015L99.7392 7.73827Z" fill="#36415D"/>
<path d="M102.943 12.9066V6.3364C102.943 6.09616 102.984 6.01608 103.224 5.97557C103.505 5.93601 103.785 5.92188 104.092 5.92188C104.399 5.92188 104.68 5.93506 104.959 5.97557C105.2 6.01608 105.24 6.09616 105.24 6.3364V12.8124C105.24 15.2157 105.854 16.2313 108.205 16.2313C109.514 16.2313 110.461 15.8441 110.969 15.096V17.0858C110.475 17.5267 109.5 18.074 107.751 18.074C104.359 18.074 102.943 16.6185 102.943 12.9066ZM113.92 15.8045C113.92 15.9647 114 16.0447 114.173 16.0447H115.108C115.308 16.0447 115.388 16.0984 115.415 16.285C115.441 16.4715 115.454 16.7259 115.454 16.9661C115.454 17.2063 115.441 17.4598 115.415 17.6472C115.388 17.8338 115.308 17.8875 115.108 17.8875H112.13C111.782 17.8875 111.622 17.7942 111.622 17.4202V6.33734C111.622 6.09711 111.662 6.01703 111.903 5.97652C112.183 5.93695 112.463 5.92282 112.77 5.92282C113.078 5.92282 113.358 5.93601 113.638 5.97652C113.878 6.01703 113.919 6.09711 113.919 6.33734V15.8045H113.92Z" fill="#36415D"/>
<path d="M119.54 6.83102V11.9316C119.54 14.8822 120.996 16.285 123.747 16.285C125.483 16.285 127.085 15.7508 127.579 15.5775C127.633 15.5643 127.686 15.5511 127.726 15.5511C127.847 15.5511 127.927 15.618 127.953 15.7781C128.007 16.0721 128.047 16.4461 128.047 16.7796C128.047 17.1536 128.047 17.2337 127.74 17.3675C127.259 17.5813 125.657 18.075 123.747 18.075C119.741 18.075 117.23 16.2322 117.23 11.9325C117.23 9.44912 118.072 7.79291 119.54 6.83197V6.83102ZM120.195 6.4702C121.17 6.00292 122.371 5.78906 123.747 5.78906C125.657 5.78906 127.259 6.26953 127.74 6.49658C128.047 6.64355 128.047 6.71044 128.047 7.08445C128.047 7.41795 128.007 7.79197 127.953 8.0859C127.927 8.24606 127.847 8.31295 127.726 8.31295C127.687 8.31295 127.633 8.29976 127.579 8.28657C127.085 8.11322 125.483 7.57905 123.747 7.57905C122.011 7.57905 120.876 8.10003 120.195 9.18156V6.47114V6.4702Z" fill="#36415D"/>
<path d="M133.269 5.97644H136.888C137.088 5.97644 137.168 6.03014 137.195 6.21668C137.221 6.40321 137.235 6.65758 137.235 6.89781C137.235 7.13805 137.222 7.39147 137.195 7.57895C137.168 7.76549 137.088 7.81919 136.888 7.81919H133.269C133.096 7.81919 133.016 7.91245 133.016 8.05942V13.6809C133.016 15.7639 133.87 16.1643 135.419 16.1643C136.206 16.1643 136.861 16.0305 137.141 15.9778C137.181 15.9646 137.208 15.9646 137.234 15.9646C137.381 15.9646 137.435 16.0578 137.461 16.218C137.502 16.4451 137.528 16.7654 137.528 17.0725C137.528 17.1789 137.528 17.2995 137.515 17.406C137.489 17.6199 137.435 17.6726 137.248 17.7263C136.861 17.8328 136.221 17.9665 134.938 17.9665C132.321 17.9665 130.719 16.8181 130.719 13.9334V2.94382C130.719 2.70359 130.759 2.62351 131 2.583C131.28 2.54249 131.56 2.5293 131.867 2.5293C132.174 2.5293 132.455 2.54249 132.735 2.583C132.975 2.62256 133.016 2.70359 133.016 2.94382V5.73432C133.016 5.89448 133.096 5.97456 133.269 5.97456V5.97644Z" fill="#36415D"/>
<path d="M143.147 17.5267C143.147 17.7669 143.107 17.847 142.867 17.8875C142.586 17.9271 142.306 17.9412 141.999 17.9412C141.692 17.9412 141.411 17.928 141.131 17.8875C140.891 17.847 140.851 17.7669 140.851 17.5267V8.05952C140.851 7.89937 140.771 7.81929 140.597 7.81929H139.409C139.209 7.81929 139.128 7.76559 139.102 7.57905C139.076 7.39252 139.062 7.13815 139.062 6.89791C139.062 6.65768 139.076 6.40425 139.102 6.21678C139.128 6.03024 139.209 5.97654 139.409 5.97654H142.641C142.987 5.97654 143.148 6.06981 143.148 6.44382V17.5267H143.147ZM143.802 6.8037C144.376 6.34961 145.405 5.78906 147.154 5.78906C150.546 5.78906 151.962 7.2041 151.962 10.3827V15.8045C151.962 15.9647 152.042 16.0448 152.215 16.0448H153.15C153.35 16.0448 153.43 16.0985 153.457 16.285C153.483 16.4715 153.497 16.7259 153.497 16.9661C153.497 17.2064 153.484 17.4598 153.457 17.6473C153.43 17.8338 153.35 17.8875 153.15 17.8875H151.988C150.426 17.8875 149.665 17.6473 149.665 15.8846V11.0243C149.665 8.62101 148.984 7.60543 146.647 7.60543C145.285 7.60543 144.364 7.99263 143.803 8.75385V6.80465L143.802 6.8037Z" fill="#36415D"/>
</svg>
