<svg width="20" height="22" viewBox="0 0 20 22" fill="none" xmlns="http://www.w3.org/2000/svg">
<path d="M16.3396 9.44015C16.3396 7.75853 15.6716 6.14579 14.4825 4.95671C13.2934 3.76763 11.6807 3.09961 9.99909 3.09961C8.31747 3.09961 6.70473 3.76763 5.51565 4.95671C4.32657 6.14579 3.65855 7.75853 3.65855 9.44015C3.65855 13.8866 2.5131 16.424 1.59924 17.7408C1.31718 18.1472 1.64497 18.951 2.13967 18.951H17.8585C18.3532 18.951 18.681 18.1472 18.3989 17.7408C17.4851 16.424 16.3396 13.8866 16.3396 9.44015Z" stroke="#36415D" stroke-linecap="round"/>
<path d="M12.5033 18.9512C12.5033 20.3339 11.3824 21.4548 9.9997 21.4548C8.617 21.4548 7.49609 20.3339 7.49609 18.9512" stroke="#36415D" stroke-linecap="round"/>
<path d="M10.78 3.15484V1.70838C10.78 1.27616 10.4297 0.925781 9.99744 0.925781V0.925781C9.56523 0.925781 9.21484 1.27616 9.21484 1.70838V3.15484" stroke="#36415D" stroke-linecap="round"/>
</svg>
