<svg width="21" height="20" viewBox="0 0 21 20" fill="none" xmlns="http://www.w3.org/2000/svg">
<path d="M17.5409 17.5769V17.5C17.5409 14.7817 15.3376 12.5781 12.6193 12.5781C11.4642 12.5781 10.2946 12.5781 9.20969 12.5781C6.44896 12.5781 4.21094 14.8161 4.21094 17.5769" fill="#F5F5F5"/>
<path d="M17.5409 17.5769V17.5V17.5C17.5409 14.7817 15.3376 12.5781 12.6193 12.5781C11.4642 12.5781 10.2946 12.5781 9.20969 12.5781C6.44896 12.5781 4.21094 14.8161 4.21094 17.5769V17.5769" stroke="#888888" stroke-linecap="round" stroke-linejoin="round"/>
<path d="M10.8735 9.24508C12.714 9.24508 14.206 7.75307 14.206 5.91258C14.206 4.07209 12.714 2.58008 10.8735 2.58008C9.03303 2.58008 7.54102 4.07209 7.54102 5.91258C7.54102 7.75307 9.03303 9.24508 10.8735 9.24508Z" fill="#F5F5F5" stroke="#888888" stroke-linecap="round"/>
</svg>
